Coordinates
version=1
nRows=6
nColumns=63
inDegrees=yes

Units are S.I. units (second, meters, Newtons, ...)
If the header above contains a line with 'inDegrees', this indicates whether rotational values are in degrees (yes) or radians (no).

endheader
time	pelvis_tilt	pelvis_list	pelvis_rotation	pelvis_tx	pelvis_ty	pelvis_tz	hip_flexion_r	hip_adduction_r	hip_rotation_r	knee_angle_r	knee_angle_r_beta	ankle_angle_r	subtalar_angle_r	mtp_angle_r	hip_flexion_l	hip_adduction_l	hip_rotation_l	knee_angle_l	knee_angle_l_beta	ankle_angle_l	subtalar_angle_l	mtp_angle_l	L5_S1_Flex_Ext	L5_S1_Lat_Bending	L5_S1_axial_rotation	L4_L5_Flex_Ext	L4_L5_Lat_Bending	L4_L5_axial_rotation	L3_L4_Flex_Ext	L3_L4_Lat_Bending	L3_L4_axial_rotation	L2_L3_Flex_Ext	L2_L3_Lat_Bending	L2_L3_axial_rotation	L1_L2_Flex_Ext	L1_L2_Lat_Bending	L1_L2_axial_rotation	L1_T12_Flex_Ext	L1_T12_Lat_Bending	L1_T12_axial_rotation	Abs_r3	Abs_r2	Abs_r1	Abs_t1	Abs_t2	neck_flexion	neck_bending	neck_rotation	arm_flex_r	arm_add_r	arm_rot_r	elbow_flex_r	pro_sup_r	wrist_flex_r	wrist_dev_r	arm_flex_l	arm_add_l	arm_rot_l	elbow_flex_l	pro_sup_l	wrist_flex_l	wrist_dev_l
      3.90000000	      4.61408727	     -1.51061894	     -9.70224106	      1.03572912	      0.97829163	      0.41523612	    -11.27673764	      3.02933294	     -7.45309574	      4.50173794	      0.07857015	     12.37717104	     11.49341883	      0.00000000	     25.63532499	     -8.74492638	    -12.86309410	     60.36327869	      1.05353796	     12.65270684	    -14.52807070	      0.00000000	     -0.00839765	      0.22011598	      1.40936193	     -0.01559528	      0.29275425	      1.49744705	     -0.01379651	      0.53518999	      1.49744705	     -0.00959768	      0.53518999	      1.23319169	     -0.00779806	      0.44886051	      1.14510657	     -0.00479842	      0.34095965	      1.05702145	     -0.05998360	      2.48999599	      7.83844823	      0.00000000	      0.00000000	     -0.00000000	      0.00000000	      0.00000000	     13.10030177	    -14.28979924	     23.80771201	     35.55202809	     14.66251915	      0.00000000	      5.00000014	    -11.84133775	    -15.09800010	     48.22557496	     19.58493670	     63.41983380	      0.00000000	      5.00000014
      3.93333333	      4.54291004	     -1.74875131	    -11.83930480	      1.07217295	      0.97619476	      0.41709215	    -13.98470208	      2.45992870	     -3.71461464	      3.48370005	      0.06080204	     12.99147016	      8.77535359	      0.00000000	     26.44699555	     -9.03837297	    -14.62310555	     48.15336729	      0.84043481	     10.18326610	    -14.93045145	      0.00000000	     -0.00989502	      0.21203409	      2.12689248	     -0.01837603	      0.28200534	      2.25982326	     -0.01625652	      0.51553970	      2.25982326	     -0.01130901	      0.51553970	      1.86103092	     -0.00918851	      0.43237992	      1.72810014	     -0.00565401	      0.32844081	      1.59516936	     -0.07067910	      2.39857207	     11.82913790	      0.00000000	      0.00000000	     -0.00000000	      0.00000000	      0.00000000	     15.03167639	    -16.08080037	     25.96851913	     36.88902409	     14.63833855	      0.00000000	      5.00000014	    -12.24622073	    -15.27443634	     47.38246538	     18.75618039	     63.72548473	      0.00000000	      5.00000014
      3.96666667	      4.52830563	     -2.14109321	    -13.35487896	      1.11140490	      0.97137815	      0.41828374	    -16.73839954	      1.83240992	     -2.67946289	      3.00138140	      0.05238399	     13.77094999	      8.97678459	      0.00000000	     25.23389928	     -9.24090947	    -16.62542050	     34.37810656	      0.60001115	      5.22586222	    -13.88964584	      0.00000000	     -0.01038906	      0.21968339	      2.65673575	     -0.01929352	      0.29217891	      2.82278174	     -0.01706819	      0.53413819	      2.82278174	     -0.01187366	      0.53413819	      2.32464378	     -0.00964728	      0.44797837	      2.15859780	     -0.00593631	      0.34028957	      1.99255181	     -0.07420802	      2.48510243	     14.77596723	      0.00000000	      0.00000000	     -0.00000000	      0.00000000	      0.00000000	     15.74935640	    -17.74856869	     26.61474729	     39.39074424	     14.96409481	      0.00000000	      5.00000014	    -12.75471953	    -15.65409016	     46.53290994	     18.71213073	     63.40943279	      0.00000000	      5.00000014
      4.00000000	      4.45743140	     -2.77446826	    -15.29573337	      1.15341494	      0.96373496	      0.41997792	    -19.32088397	      1.12832060	      1.28943766	      3.23887641	      0.05652906	     14.21278868	      6.09819602	      0.00000000	     22.71244063	     -9.97643024	    -21.33341983	     21.40036721	      0.37350687	      0.11509086	     -9.23648920	      0.00000000	     -0.01010099	      0.25120367	      3.11349594	     -0.01875854	      0.33410088	      3.30808944	     -0.01659491	      0.61077661	      3.30808944	     -0.01154442	      0.61077661	      2.72430895	     -0.00937978	      0.51225453	      2.52971545	     -0.00577170	      0.38911449	      2.33512196	     -0.07215033	      2.84166618	     17.31633037	      0.00000000	      0.00000000	     -0.00000000	      0.00000000	      0.00000000	     16.37239746	    -18.88540349	     26.78242456	     41.66662091	     17.32535227	      0.00000000	      5.00000014	    -17.92218199	    -13.09532576	     14.72119428	     23.48372719	     54.37484580	      0.00000000	      5.00000014
      4.03333333	      4.50155925	     -3.71530366	    -16.30265965	      1.19871704	      0.95459758	      0.41986926	    -21.85175074	      0.60800237	      0.79504862	      4.54117204	      0.07925840	     14.99971022	      8.19962229	      0.00000000	     20.56169016	    -10.52696662	    -25.90906886	     12.30719883	      0.21480114	     -3.63666493	     -2.55728853	      0.00000000	     -0.00761086	      0.33152459	      3.35831689	     -0.01413412	      0.44092770	      3.56821170	     -0.01250387	      0.80606888	      3.56821170	     -0.00869845	      0.80606888	      2.93852728	     -0.00706744	      0.67604494	      2.72863247	     -0.00434884	      0.51353159	      2.51873767	     -0.05436358	      3.75027244	     18.67795105	      0.00000000	      0.00000000	     -0.00000000	      0.00000000	      0.00000000	     16.42689226	    -19.58334655	     25.39481440	     44.12961031	     18.97724580	      0.00000000	      5.00000014	    -20.58486980	    -11.83329279	      4.29784465	     27.71144794	     54.45923482	      0.00000000	      5.00000014
      4.06666667	      4.73340507	     -4.50494293	    -16.49871199	      1.24685421	      0.94595415	      0.41829370	    -24.04043996	      0.02381078	      0.08823321	      7.24116271	      0.12638213	     15.06313430	      9.10610568	      0.00000000	     19.28149326	    -10.69578782	    -28.09144236	      8.06987714	      0.14084593	     -5.58359338	      1.45702204	      0.00000000	     -0.00623756	      0.40186762	      3.40095939	     -0.01158378	      0.53448393	      3.61351935	     -0.01024769	      0.97710093	      3.61351935	     -0.00712891	      0.97710093	      2.97583946	     -0.00579220	      0.81948845	      2.76327950	     -0.00356414	      0.62249294	      2.55071954	     -0.04455428	      4.54600689	     18.91511583	      0.00000000	      0.00000000	     -0.00000000	      0.00000000	      0.00000000	     16.13902801	    -19.38336942	     22.86494064	     45.83072261	     19.18194908	      0.00000000	      5.00000014	    -22.43039296	    -11.15083552	     -0.11761252	     30.92815619	     54.02646702	      0.00000000	      5.00000014
